<svg xmlns="http://www.w3.org/2000/svg" width="20" height="21" viewBox="0 0 20 21"><g transform="translate(-149 -365)"><path d="M14.982,0H2.335A2.333,2.333,0,0,0,0,2.333V14.98a2.333,2.333,0,0,0,2.333,2.333H8.572l.011-6.187H6.976a.379.379,0,0,1-.379-.378L6.589,8.754a.379.379,0,0,1,.379-.381h1.6V6.446a3.148,3.148,0,0,1,3.361-3.454H13.57a.379.379,0,0,1,.379.379V5.054a.379.379,0,0,1-.379.379h-1c-1.085,0-1.295.516-1.295,1.272V8.373h2.384a.379.379,0,0,1,.377.424l-.236,1.994a.379.379,0,0,1-.377.335H11.281l-.011,6.187h3.711a2.333,2.333,0,0,0,2.333-2.333V2.333A2.333,2.333,0,0,0,14.982,0Z" transform="translate(150.085 367)" fill="#475993"/><rect width="20" height="21" transform="translate(149 365)" fill="none"/></g></svg>