<svg xmlns="http://www.w3.org/2000/svg" width="20" height="21" viewBox="0 0 20 21"><g transform="translate(-305 -365)"><g transform="translate(306 366)"><path d="M4.011,144.317l-.63,2.352-2.3.049a9.065,9.065,0,0,1-.067-8.45h0l2.05.376.9,2.038a5.4,5.4,0,0,0,.051,3.636Z" transform="translate(0 -133.381)" fill="#fbbb00"/><path d="M270.32,208.176a9.045,9.045,0,0,1-3.226,8.747h0l-2.582-.132-.365-2.281a5.393,5.393,0,0,0,2.32-2.754h-4.839v-3.58h8.692Z" transform="translate(-252.38 -200.818)" fill="#518ef8"/><path d="M44.144,314.577h0a9.052,9.052,0,0,1-13.635-2.768l2.932-2.4a5.382,5.382,0,0,0,7.755,2.755Z" transform="translate(-29.431 -298.472)" fill="#28b446"/><path d="M42.437,2.083l-2.931,2.4A5.381,5.381,0,0,0,31.572,7.3L28.624,4.887h0a9.051,9.051,0,0,1,13.813-2.8Z" transform="translate(-27.612)" fill="#f14336"/></g><rect width="20" height="21" transform="translate(305 365)" fill="none"/></g></svg>